<svg width="35" height="30" viewBox="0 0 35 30" fill="none" xmlns="http://www.w3.org/2000/svg">
<path d="M27 19.9999H13.74L8 0.709936C7.93581 0.497359 7.80268 0.312196 7.62162 0.183641C7.44056 0.0550867 7.22186 -0.0095455 7 -6.41686e-05H1C0.734784 -6.41686e-05 0.48043 0.105293 0.292893 0.292829C0.105357 0.480366 0 0.734719 0 0.999936C0 1.26515 0.105357 1.51951 0.292893 1.70704C0.48043 1.89458 0.734784 1.99994 1 1.99994H6.26L12 21.2899C12.0642 21.5025 12.1973 21.6877 12.3784 21.8162C12.5594 21.9448 12.7781 22.0094 13 21.9999H27C27.2652 21.9999 27.5196 21.8946 27.7071 21.707C27.8946 21.5195 28 21.2652 28 20.9999C28 20.7347 27.8946 20.4804 27.7071 20.2928C27.5196 20.1053 27.2652 19.9999 27 19.9999Z" fill="white"/>
<path d="M33.81 5.42C33.718 5.29076 33.5965 5.18527 33.4557 5.11224C33.3148 5.0392 33.1587 5.00073 33 5H12.5C12.2348 5 11.9804 5.10536 11.7929 5.29289C11.6054 5.48043 11.5 5.73478 11.5 6C11.5 6.26522 11.6054 6.51957 11.7929 6.70711C11.9804 6.89464 12.2348 7 12.5 7H31.61L28.28 17H16.1C15.8348 17 15.5804 17.1054 15.3929 17.2929C15.2054 17.4804 15.1 17.7348 15.1 18C15.1 18.2652 15.2054 18.5196 15.3929 18.7071C15.5804 18.8946 15.8348 19 16.1 19H29C29.2181 19.0114 29.4339 18.9511 29.6144 18.8283C29.795 18.7055 29.9304 18.527 30 18.32L34 6.32C34.0427 6.16573 34.0477 6.00347 34.0146 5.84686C33.9816 5.69025 33.9114 5.54386 33.81 5.42Z" fill="white"/>
<path d="M25 24C24.4067 24 23.8266 24.1759 23.3333 24.5056C22.8399 24.8352 22.4554 25.3038 22.2284 25.852C22.0013 26.4001 21.9419 27.0033 22.0576 27.5853C22.1734 28.1672 22.4591 28.7018 22.8787 29.1213C23.2982 29.5409 23.8328 29.8266 24.4147 29.9424C24.9967 30.0581 25.5999 29.9987 26.148 29.7716C26.6962 29.5446 27.1648 29.1601 27.4944 28.6667C27.8241 28.1734 28 27.5933 28 27C28 26.2044 27.6839 25.4413 27.1213 24.8787C26.5587 24.3161 25.7957 24 25 24ZM25 28C24.8022 28 24.6089 27.9414 24.4444 27.8315C24.28 27.7216 24.1518 27.5654 24.0761 27.3827C24.0004 27.2 23.9806 26.9989 24.0192 26.8049C24.0578 26.6109 24.153 26.4327 24.2929 26.2929C24.4327 26.153 24.6109 26.0578 24.8049 26.0192C24.9989 25.9806 25.2 26.0004 25.3827 26.0761C25.5654 26.1518 25.7216 26.28 25.8315 26.4444C25.9414 26.6089 26 26.8022 26 27C26 27.2652 25.8946 27.5196 25.7071 27.7071C25.5196 27.8946 25.2652 28 25 28Z" fill="white"/>
<path d="M15 24C14.4067 24 13.8266 24.1759 13.3333 24.5056C12.8399 24.8352 12.4554 25.3038 12.2284 25.852C12.0013 26.4001 11.9419 27.0033 12.0576 27.5853C12.1734 28.1672 12.4591 28.7018 12.8787 29.1213C13.2982 29.5409 13.8328 29.8266 14.4147 29.9424C14.9967 30.0581 15.5999 29.9987 16.1481 29.7716C16.6962 29.5446 17.1648 29.1601 17.4944 28.6667C17.8241 28.1734 18 27.5933 18 27C18 26.2044 17.6839 25.4413 17.1213 24.8787C16.5587 24.3161 15.7957 24 15 24ZM15 28C14.8022 28 14.6089 27.9414 14.4444 27.8315C14.28 27.7216 14.1518 27.5654 14.0761 27.3827C14.0004 27.2 13.9806 26.9989 14.0192 26.8049C14.0578 26.6109 14.153 26.4327 14.2929 26.2929C14.4327 26.153 14.6109 26.0578 14.8049 26.0192C14.9989 25.9806 15.2 26.0004 15.3827 26.0761C15.5654 26.1518 15.7216 26.28 15.8315 26.4444C15.9414 26.6089 16 26.8022 16 27C16 27.2652 15.8946 27.5196 15.7071 27.7071C15.5196 27.8946 15.2652 28 15 28Z" fill="white"/>
</svg>
