<svg width="78" height="78" viewBox="0 0 78 78" fill="none" xmlns="http://www.w3.org/2000/svg">
<path fill-rule="evenodd" clip-rule="evenodd" d="M3 39C3 19.117 19.117 3 39 3C58.883 3 75 19.117 75 39C75 48.4883 71.332 57.117 65.332 63.547C64.1484 59.5118 61.0547 55.5509 57.25 52.43C54.0391 49.8011 50.1602 47.6292 46.121 46.4339C50.4413 44.0901 53.3788 39.512 53.3788 34.2459C53.3788 26.5975 47.1757 20.3939 39.5268 20.3939C31.8784 20.3939 25.6748 26.597 25.6748 34.2459C25.6748 39.5037 28.6045 44.0779 32.9209 46.4259C28.8271 47.6173 24.8545 49.7892 21.5579 52.4181C17.511 55.6447 14.2063 59.7892 13.0852 63.9921C6.8391 57.5155 3 48.707 3 39ZM15.695 66.441C21.9762 71.7769 30.113 74.9996 39 74.9996C48.1211 74.9996 56.449 71.609 62.793 66.0191C62.3555 62.398 59.5782 58.2183 55.3477 54.7491C50.7813 51.0069 44.8987 48.421 39.5277 48.421C34.1527 48.421 28.1327 51.0108 23.4297 54.7608C18.8985 58.378 15.9685 62.7493 15.695 66.441ZM39 0C17.461 0 0 17.461 0 39C0 60.539 17.461 78 39 78C60.539 78 78 60.539 78 39C78 17.461 60.539 0 39 0ZM39.5273 23.395C33.5351 23.395 28.6753 28.2544 28.6753 34.247C28.6753 40.2431 33.5347 45.099 39.5273 45.099C45.5195 45.099 50.3793 40.2435 50.3793 34.247C50.3793 28.2548 45.5199 23.395 39.5273 23.395Z" fill="white"/>
</svg>
